<mxfile host="65bd71144e">
    <diagram id="6EKvQP0kC8k8JVaCRQzg" name="Page-1">
        <mxGraphModel dx="1375" dy="821" grid="1" gridSize="10" guides="1" tooltips="1" connect="1" arrows="1" fold="1" page="1" pageScale="1" pageWidth="1100" pageHeight="850" math="0" shadow="0">
            <root>
                <mxCell id="0"/>
                <mxCell id="1" parent="0"/>
                <mxCell id="42" style="edgeStyle=orthogonalEdgeStyle;rounded=0;orthogonalLoop=1;jettySize=auto;html=1;exitX=1;exitY=0.5;exitDx=0;exitDy=0;startArrow=none;startFill=0;endArrow=classic;endFill=1;" edge="1" parent="1" source="2" target="17">
                    <mxGeometry relative="1" as="geometry">
                        <Array as="points">
                            <mxPoint x="270" y="640"/>
                            <mxPoint x="270" y="425"/>
                        </Array>
                    </mxGeometry>
                </mxCell>
                <mxCell id="43" style="edgeStyle=orthogonalEdgeStyle;rounded=0;orthogonalLoop=1;jettySize=auto;html=1;exitX=1;exitY=0.5;exitDx=0;exitDy=0;entryX=0;entryY=0.5;entryDx=0;entryDy=0;startArrow=none;startFill=0;endArrow=classic;endFill=1;" edge="1" parent="1" source="2" target="24">
                    <mxGeometry relative="1" as="geometry"/>
                </mxCell>
                <mxCell id="52" value="Push to main / develop" style="edgeStyle=orthogonalEdgeStyle;rounded=0;orthogonalLoop=1;jettySize=auto;html=1;exitX=1;exitY=0.5;exitDx=0;exitDy=0;entryX=0;entryY=0.5;entryDx=0;entryDy=0;startArrow=none;startFill=0;endArrow=classic;endFill=1;" edge="1" parent="1" source="2" target="45">
                    <mxGeometry x="-0.6979" y="10" relative="1" as="geometry">
                        <Array as="points">
                            <mxPoint x="270" y="640"/>
                            <mxPoint x="270" y="865"/>
                        </Array>
                        <mxPoint as="offset"/>
                    </mxGeometry>
                </mxCell>
                <mxCell id="2" value="GitHub Repository" style="rounded=0;whiteSpace=wrap;html=1;" vertex="1" parent="1">
                    <mxGeometry x="10" y="610" width="120" height="60" as="geometry"/>
                </mxCell>
                <mxCell id="16" value="Circle CI" style="swimlane;dashed=1;" vertex="1" parent="1">
                    <mxGeometry x="250" y="280" width="1110" height="730" as="geometry"/>
                </mxCell>
                <mxCell id="22" value="Login Service" style="swimlane;dashed=1;" vertex="1" parent="16">
                    <mxGeometry x="32.75" y="32" width="1057.25" height="198" as="geometry"/>
                </mxCell>
                <mxCell id="17" value="Build" style="rounded=0;whiteSpace=wrap;html=1;" vertex="1" parent="22">
                    <mxGeometry x="21" y="83" width="120" height="60" as="geometry"/>
                </mxCell>
                <mxCell id="18" value="Test" style="rounded=0;whiteSpace=wrap;html=1;" vertex="1" parent="22">
                    <mxGeometry x="171" y="83" width="120" height="60" as="geometry"/>
                </mxCell>
                <mxCell id="19" style="edgeStyle=orthogonalEdgeStyle;rounded=0;orthogonalLoop=1;jettySize=auto;html=1;exitX=1;exitY=0.5;exitDx=0;exitDy=0;" edge="1" parent="22" source="17" target="18">
                    <mxGeometry relative="1" as="geometry"/>
                </mxCell>
                <mxCell id="40" style="edgeStyle=orthogonalEdgeStyle;rounded=0;orthogonalLoop=1;jettySize=auto;html=1;exitX=1;exitY=0.5;exitDx=0;exitDy=0;startArrow=none;startFill=0;endArrow=classic;endFill=1;" edge="1" parent="22" source="20" target="39">
                    <mxGeometry relative="1" as="geometry"/>
                </mxCell>
                <mxCell id="20" value="Package" style="rounded=0;whiteSpace=wrap;html=1;" vertex="1" parent="22">
                    <mxGeometry x="321" y="83" width="120" height="60" as="geometry"/>
                </mxCell>
                <mxCell id="21" style="edgeStyle=orthogonalEdgeStyle;rounded=0;orthogonalLoop=1;jettySize=auto;html=1;exitX=1;exitY=0.5;exitDx=0;exitDy=0;" edge="1" parent="22" source="18" target="20">
                    <mxGeometry relative="1" as="geometry"/>
                </mxCell>
                <mxCell id="63" value="If push to main" style="edgeStyle=orthogonalEdgeStyle;rounded=0;orthogonalLoop=1;jettySize=auto;html=1;exitX=1;exitY=0.5;exitDx=0;exitDy=0;startArrow=none;startFill=0;endArrow=classic;endFill=1;" edge="1" parent="22" source="39" target="56">
                    <mxGeometry x="0.4125" y="-10" relative="1" as="geometry">
                        <Array as="points">
                            <mxPoint x="617" y="113"/>
                            <mxPoint x="617" y="68"/>
                        </Array>
                        <mxPoint as="offset"/>
                    </mxGeometry>
                </mxCell>
                <mxCell id="64" value="if push to develop" style="edgeStyle=orthogonalEdgeStyle;rounded=0;orthogonalLoop=1;jettySize=auto;html=1;exitX=1;exitY=0.5;exitDx=0;exitDy=0;startArrow=none;startFill=0;endArrow=classic;endFill=1;" edge="1" parent="22" source="39" target="59">
                    <mxGeometry x="0.3761" y="-10" relative="1" as="geometry">
                        <Array as="points">
                            <mxPoint x="617" y="113"/>
                            <mxPoint x="617" y="148"/>
                        </Array>
                        <mxPoint as="offset"/>
                    </mxGeometry>
                </mxCell>
                <mxCell id="39" value="Push Image to ECR" style="rounded=0;whiteSpace=wrap;html=1;" vertex="1" parent="22">
                    <mxGeometry x="472" y="83" width="120" height="60" as="geometry"/>
                </mxCell>
                <mxCell id="56" value="Request Approval" style="rounded=0;whiteSpace=wrap;html=1;" vertex="1" parent="22">
                    <mxGeometry x="717.25" y="38" width="120" height="60" as="geometry"/>
                </mxCell>
                <mxCell id="59" value="Run Development ECS Service Update&amp;nbsp;" style="rounded=0;whiteSpace=wrap;html=1;" vertex="1" parent="22">
                    <mxGeometry x="717.25" y="118" width="120" height="60" as="geometry"/>
                </mxCell>
                <mxCell id="78" value="" style="edgeStyle=orthogonalEdgeStyle;rounded=0;orthogonalLoop=1;jettySize=auto;html=1;startArrow=none;startFill=0;endArrow=classic;endFill=1;" edge="1" parent="22" target="79" source="56">
                    <mxGeometry relative="1" as="geometry">
                        <mxPoint x="837.25" y="68" as="sourcePoint"/>
                    </mxGeometry>
                </mxCell>
                <mxCell id="79" value="Run Production ECS Service Update&amp;nbsp;" style="rounded=0;whiteSpace=wrap;html=1;" vertex="1" parent="22">
                    <mxGeometry x="917.25" y="38" width="120" height="60" as="geometry"/>
                </mxCell>
                <mxCell id="23" value="Book Service" style="swimlane;dashed=1;" vertex="1" parent="16">
                    <mxGeometry x="32.75" y="246" width="1057.25" height="204" as="geometry"/>
                </mxCell>
                <mxCell id="24" value="Build" style="rounded=0;whiteSpace=wrap;html=1;" vertex="1" parent="23">
                    <mxGeometry x="21" y="84" width="120" height="60" as="geometry"/>
                </mxCell>
                <mxCell id="25" value="Test" style="rounded=0;whiteSpace=wrap;html=1;" vertex="1" parent="23">
                    <mxGeometry x="171" y="84" width="120" height="60" as="geometry"/>
                </mxCell>
                <mxCell id="26" style="edgeStyle=orthogonalEdgeStyle;rounded=0;orthogonalLoop=1;jettySize=auto;html=1;exitX=1;exitY=0.5;exitDx=0;exitDy=0;" edge="1" parent="23" source="24" target="25">
                    <mxGeometry relative="1" as="geometry"/>
                </mxCell>
                <mxCell id="27" value="Package" style="rounded=0;whiteSpace=wrap;html=1;" vertex="1" parent="23">
                    <mxGeometry x="321" y="84" width="120" height="60" as="geometry"/>
                </mxCell>
                <mxCell id="28" style="edgeStyle=orthogonalEdgeStyle;rounded=0;orthogonalLoop=1;jettySize=auto;html=1;exitX=1;exitY=0.5;exitDx=0;exitDy=0;" edge="1" parent="23" source="25" target="27">
                    <mxGeometry relative="1" as="geometry"/>
                </mxCell>
                <mxCell id="38" value="Push Image to ECR" style="rounded=0;whiteSpace=wrap;html=1;" vertex="1" parent="23">
                    <mxGeometry x="473.5" y="84" width="120" height="60" as="geometry"/>
                </mxCell>
                <mxCell id="35" style="edgeStyle=orthogonalEdgeStyle;rounded=0;orthogonalLoop=1;jettySize=auto;html=1;exitX=1;exitY=0.5;exitDx=0;exitDy=0;startArrow=none;startFill=0;endArrow=classic;endFill=1;" edge="1" parent="23" source="27" target="38">
                    <mxGeometry relative="1" as="geometry">
                        <mxPoint x="787.5" y="52" as="targetPoint"/>
                        <Array as="points"/>
                    </mxGeometry>
                </mxCell>
                <mxCell id="65" value="If push to main" style="edgeStyle=orthogonalEdgeStyle;rounded=0;orthogonalLoop=1;jettySize=auto;html=1;exitX=1;exitY=0.5;exitDx=0;exitDy=0;startArrow=none;startFill=0;endArrow=classic;endFill=1;" edge="1" parent="23" target="67">
                    <mxGeometry x="0.4125" y="-10" relative="1" as="geometry">
                        <mxPoint x="593.4999999999998" y="119" as="sourcePoint"/>
                        <Array as="points">
                            <mxPoint x="618.5" y="119"/>
                            <mxPoint x="618.5" y="74"/>
                        </Array>
                        <mxPoint as="offset"/>
                    </mxGeometry>
                </mxCell>
                <mxCell id="66" value="if push to develop" style="edgeStyle=orthogonalEdgeStyle;rounded=0;orthogonalLoop=1;jettySize=auto;html=1;exitX=1;exitY=0.5;exitDx=0;exitDy=0;startArrow=none;startFill=0;endArrow=classic;endFill=1;" edge="1" parent="23" target="68">
                    <mxGeometry x="0.3761" y="-10" relative="1" as="geometry">
                        <mxPoint x="593.4999999999998" y="119" as="sourcePoint"/>
                        <Array as="points">
                            <mxPoint x="618.5" y="119"/>
                            <mxPoint x="618.5" y="154"/>
                        </Array>
                        <mxPoint as="offset"/>
                    </mxGeometry>
                </mxCell>
                <mxCell id="77" value="" style="edgeStyle=orthogonalEdgeStyle;rounded=0;orthogonalLoop=1;jettySize=auto;html=1;startArrow=none;startFill=0;endArrow=classic;endFill=1;" edge="1" parent="23" source="67" target="76">
                    <mxGeometry relative="1" as="geometry"/>
                </mxCell>
                <mxCell id="67" value="Request Approval" style="rounded=0;whiteSpace=wrap;html=1;" vertex="1" parent="23">
                    <mxGeometry x="718.75" y="44" width="120" height="60" as="geometry"/>
                </mxCell>
                <mxCell id="68" value="Run Development ECS Service Update&amp;nbsp;" style="rounded=0;whiteSpace=wrap;html=1;" vertex="1" parent="23">
                    <mxGeometry x="718.75" y="124" width="120" height="60" as="geometry"/>
                </mxCell>
                <mxCell id="76" value="Run Production ECS Service Update&amp;nbsp;" style="rounded=0;whiteSpace=wrap;html=1;" vertex="1" parent="23">
                    <mxGeometry x="918.75" y="44" width="120" height="60" as="geometry"/>
                </mxCell>
                <mxCell id="44" value="Frontend" style="swimlane;dashed=1;" vertex="1" parent="16">
                    <mxGeometry x="31.25" y="470" width="1058.75" height="230" as="geometry"/>
                </mxCell>
                <mxCell id="45" value="Build" style="rounded=0;whiteSpace=wrap;html=1;" vertex="1" parent="44">
                    <mxGeometry x="21" y="85" width="120" height="60" as="geometry"/>
                </mxCell>
                <mxCell id="46" value="Test" style="rounded=0;whiteSpace=wrap;html=1;" vertex="1" parent="44">
                    <mxGeometry x="171" y="85" width="120" height="60" as="geometry"/>
                </mxCell>
                <mxCell id="47" style="edgeStyle=orthogonalEdgeStyle;rounded=0;orthogonalLoop=1;jettySize=auto;html=1;exitX=1;exitY=0.5;exitDx=0;exitDy=0;" edge="1" parent="44" source="45" target="46">
                    <mxGeometry relative="1" as="geometry"/>
                </mxCell>
                <mxCell id="54" value="Production Build" style="rounded=0;whiteSpace=wrap;html=1;" vertex="1" parent="44">
                    <mxGeometry x="323.5" y="85" width="120" height="60" as="geometry"/>
                </mxCell>
                <mxCell id="53" style="edgeStyle=orthogonalEdgeStyle;rounded=0;orthogonalLoop=1;jettySize=auto;html=1;exitX=1;exitY=0.5;exitDx=0;exitDy=0;startArrow=none;startFill=0;endArrow=classic;endFill=1;" edge="1" parent="44" source="46" target="54">
                    <mxGeometry relative="1" as="geometry">
                        <mxPoint x="377.5" y="115.24137931034488" as="targetPoint"/>
                    </mxGeometry>
                </mxCell>
                <mxCell id="72" value="If push to main" style="edgeStyle=orthogonalEdgeStyle;rounded=0;orthogonalLoop=1;jettySize=auto;html=1;exitX=1;exitY=0.5;exitDx=0;exitDy=0;startArrow=none;startFill=0;endArrow=classic;endFill=1;" edge="1" parent="44" target="74">
                    <mxGeometry x="0.4125" y="-10" relative="1" as="geometry">
                        <mxPoint x="443.4999999999998" y="120" as="sourcePoint"/>
                        <Array as="points">
                            <mxPoint x="468.5" y="120"/>
                            <mxPoint x="468.5" y="75"/>
                        </Array>
                        <mxPoint as="offset"/>
                    </mxGeometry>
                </mxCell>
                <mxCell id="73" value="if push to develop" style="edgeStyle=orthogonalEdgeStyle;rounded=0;orthogonalLoop=1;jettySize=auto;html=1;startArrow=none;startFill=0;endArrow=classic;endFill=1;" edge="1" parent="44" target="75" source="54">
                    <mxGeometry x="0.3761" y="-10" relative="1" as="geometry">
                        <mxPoint x="443.4999999999998" y="120" as="sourcePoint"/>
                        <Array as="points">
                            <mxPoint x="468" y="120"/>
                            <mxPoint x="468" y="155"/>
                        </Array>
                        <mxPoint as="offset"/>
                    </mxGeometry>
                </mxCell>
                <mxCell id="74" value="Deploy Production" style="rounded=0;whiteSpace=wrap;html=1;" vertex="1" parent="44">
                    <mxGeometry x="568.75" y="45" width="120" height="60" as="geometry"/>
                </mxCell>
                <mxCell id="75" value="Deploy Development" style="rounded=0;whiteSpace=wrap;html=1;" vertex="1" parent="44">
                    <mxGeometry x="568.75" y="125" width="120" height="60" as="geometry"/>
                </mxCell>
            </root>
        </mxGraphModel>
    </diagram>
</mxfile>